<?xml version="1.0" encoding="utf-8"?>
<!-- Generator: Adobe Illustrator 13.0.0, SVG Export Plug-In . SVG Version: 6.00 Build 14948)  -->
<!DOCTYPE svg PUBLIC "-//W3C//DTD SVG 1.1//EN" "http://www.w3.org/Graphics/SVG/1.1/DTD/svg11.dtd">
<svg version="1.1" id="carsales_1_" xmlns="http://www.w3.org/2000/svg" xmlns:xlink="http://www.w3.org/1999/xlink" x="0px"
	 y="0px" width="98px" height="40px" viewBox="0 0 98 40" enable-background="new 0 0 98 40" xml:space="preserve">
<g id="Shape_3_copy_4">
	<g>
		<path fill-rule="evenodd" clip-rule="evenodd" fill="#0D7BC0" d="M71.672,11.434C69.349,9.51,59.582,1.965,46.19,1.965
			c-15.754,0-26.709,10.06-29.454,12.809L1.513,13.35l-0.54,3.609L18.2,18.615l0.62-0.685C18.93,17.81,29.959,5.655,46.19,5.655
			c13.617,0,23.426,8.872,23.522,8.958l0.502,0.453l0.675,0.022c0.15,0.006,15.215,0.667,23.714,8.45l2.396-2.786
			C88.457,12.931,74.859,11.634,71.672,11.434z M27.509,27.15H27.46c-0.978-1.492-2.715-2.275-4.598-2.275
			c-4.867,0-7.19,3.89-7.19,7.19c0,3.57,2.617,7.068,7.19,7.068c1.834,0,3.62-0.782,4.598-2.445h0.049v2.103h2.544V25.242h-2.544
			V27.15z M22.838,36.811c-2.69,0-4.623-2.323-4.623-4.77c0-2.127,1.517-4.842,4.647-4.842c2.617,0,4.696,1.957,4.696,4.842
			C27.558,34.634,25.503,36.811,22.838,36.811z M77.96,24.875c-3.815,0-6.946,3.059-6.946,7.117c0,3.84,3.058,7.142,6.896,7.142
			c2.104,0,5.209-1.101,6.506-4.599h-2.543c-0.611,1.175-1.98,2.275-3.864,2.275c-1.712,0-3.815-1.076-4.451-3.693h11.226
			c0.023-0.171,0.073-0.856,0.073-1.296C84.832,27.858,81.628,24.875,77.96,24.875z M73.558,31.161
			c0.122-1.981,1.933-3.962,4.378-3.962s4.256,1.98,4.377,3.962H73.558z"/>
	</g>
</g>
<g id="Shape_4_copy_4">
	<g>
		<path fill-rule="evenodd" clip-rule="evenodd" fill="#0D7BC0" d="M8.368,27.014c2.421,0,3.399,1.688,3.815,2.544h2.813
			c-0.514-2.006-2.813-4.868-6.653-4.868c-4.28,0-6.97,3.449-6.97,7.117c0,3.497,2.495,7.142,6.946,7.142
			c3.008,0,5.649-1.811,6.677-4.819h-2.837c-0.636,1.395-1.932,2.496-3.84,2.496c-2.91,0-4.402-2.472-4.402-4.818
			C3.917,29.753,5.09,27.014,8.368,27.014z M62.923,26.965h-0.05c-0.979-1.492-2.715-2.275-4.598-2.275
			c-4.866,0-7.189,3.89-7.189,7.19c0,3.57,2.617,7.068,7.189,7.068c1.834,0,3.619-0.782,4.598-2.446h0.05v2.103h2.544V25.057h-2.544
			V26.965z M58.251,36.625c-2.69,0-4.622-2.324-4.622-4.77c0-2.127,1.517-4.842,4.646-4.842c2.617,0,4.695,1.957,4.695,4.842
			C62.971,34.448,60.917,36.625,58.251,36.625z M67.474,38.604h2.544V20.508h-2.544V38.604z M89.623,28.526
			c0.024-0.554,0.481-1.655,2.127-1.655c1.648,0,2.19,1.4,2.26,1.854l2.471,0.001c0-1.054-1.089-4.039-4.71-4.039
			c-3.622,0-4.46,2.555-4.514,3.745c-0.196,4.402,7.097,3.621,6.969,6.485c-0.024,0.532-0.534,1.807-2.64,1.807
			c-2.059,0-2.71-1.697-2.76-2.379h-2.436c0.131,1.328,1.089,4.603,5.23,4.603c4.12,0,4.924-2.925,4.973-4.014
			C96.799,30.34,89.529,30.624,89.623,28.526z M42.98,28.526c0.025-0.554,0.482-1.655,2.128-1.655c1.647,0,2.19,1.4,2.259,1.854
			l2.471,0.001c0-1.054-1.088-4.039-4.711-4.039c-3.622,0-4.46,2.555-4.514,3.745c-0.197,4.402,7.097,3.621,6.969,6.485
			c-0.024,0.532-0.534,1.807-2.64,1.807c-2.058,0-2.71-1.697-2.759-2.379h-2.436c0.131,1.328,1.088,4.603,5.23,4.603
			c4.121,0,4.924-2.925,4.973-4.014C50.158,30.34,42.886,30.624,42.98,28.526z M38.751,24.689c-2.519,0-3.398,1.272-3.889,1.834
			h-0.029v-1.467h-2.367v13.548h2.543v-7.394c0-1.001,0-4.066,3.351-4.066c0.279,0,0.561,0.057,0.836,0.162l1.127-2.303
			C39.805,24.803,39.266,24.689,38.751,24.689z"/>
	</g>
</g>
<g id="carsales_xA0_Clipping_Path" display="none">
	<path display="inline" fill="none" d="M107.984,15.308c-0.018-1.916-0.029-2.695-0.047-3.603c-0.051-2.692-0.225-5.417-0.683-7.851
		c-0.499-2.653-1.175-5.064-2.397-7.477c-1.24-2.447-2.941-4.562-4.783-6.45c-1.888-1.842-4.003-3.543-6.451-4.783
		c-2.412-1.223-4.822-1.898-7.477-2.397c-2.434-0.458-5.158-0.632-7.85-0.684c-0.906-0.018-1.688-0.029-3.603-0.047
		c-1.817-0.017-3.31-0.023-4.409-0.023H25.719c-1.1,0-2.592,0.007-4.41,0.023c-1.916,0.018-2.695,0.029-3.602,0.047
		c-2.692,0.052-5.417,0.226-7.85,0.684c-2.654,0.499-5.064,1.175-7.477,2.397c-2.448,1.24-4.563,2.941-6.45,4.783
		c-1.843,1.888-3.543,4.003-4.784,6.45c-1.222,2.412-1.898,4.823-2.397,7.477c-0.458,2.434-0.632,5.158-0.683,7.851
		c-0.018,0.907-0.029,1.687-0.047,3.603c-0.017,1.817-0.023,3.31-0.023,4.409v44.565c0,1.1,0.006,2.592,0.023,4.41
		c0.018,1.916,0.029,2.695,0.047,3.603c0.051,2.691,0.226,5.416,0.683,7.85c0.499,2.654,1.175,5.064,2.397,7.477
		c1.241,2.448,2.941,4.563,4.784,6.45c1.887,1.843,4.002,3.544,6.45,4.784c2.412,1.222,4.822,1.898,7.477,2.397
		c2.434,0.457,5.158,0.632,7.85,0.684c0.907,0.017,1.687,0.028,3.602,0.046c1.818,0.018,3.311,0.023,4.41,0.023h44.566
		c1.1,0,2.592-0.006,4.409-0.023c1.915-0.018,2.696-0.029,3.603-0.046c2.691-0.052,5.416-0.227,7.85-0.684
		c2.654-0.499,5.064-1.176,7.477-2.397c2.448-1.24,4.563-2.941,6.451-4.784c1.842-1.887,3.543-4.002,4.783-6.45
		c1.223-2.412,1.898-4.822,2.397-7.477c0.458-2.434,0.632-5.158,0.683-7.85c0.018-0.907,0.029-1.687,0.047-3.603
		c0.018-1.818,0.023-3.311,0.023-4.41V19.717C108.008,18.617,108.002,17.125,107.984,15.308z"/>
</g>
</svg>
